<svg xmlns="http://www.w3.org/2000/svg" viewBox="0 0 1920 1080" preserveAspectRatio="xMidYMid slice">
<defs><mask id="m">
<rect width="1920" height="1080" fill="white"/>
<rect x="-19" y="301" width="7" height="13" fill="black"/>
<rect x="-1" y="301" width="7" height="13" fill="black"/>
<rect x="17" y="301" width="7" height="13" fill="black"/>
<rect x="35" y="301" width="7" height="13" fill="black"/>
<rect x="-19" y="331" width="7" height="13" fill="black"/>
<rect x="17" y="331" width="7" height="13" fill="black"/>
<rect x="35" y="331" width="7" height="13" fill="black"/>
<rect x="-19" y="361" width="7" height="13" fill="black"/>
<rect x="-1" y="361" width="7" height="13" fill="black"/>
<rect x="-1" y="391" width="7" height="13" fill="black"/>
<rect x="-19" y="421" width="7" height="13" fill="black"/>
<rect x="-1" y="451" width="7" height="13" fill="black"/>
<rect x="17" y="451" width="7" height="13" fill="black"/>
<rect x="35" y="451" width="7" height="13" fill="black"/>
<rect x="-1" y="481" width="7" height="13" fill="black"/>
<rect x="17" y="481" width="7" height="13" fill="black"/>
<rect x="35" y="481" width="7" height="13" fill="black"/>
<rect x="-19" y="511" width="7" height="13" fill="black"/>
<rect x="-1" y="511" width="7" height="13" fill="black"/>
<rect x="17" y="511" width="7" height="13" fill="black"/>
<rect x="35" y="511" width="7" height="13" fill="black"/>
<rect x="-19" y="541" width="7" height="13" fill="black"/>
<rect x="-1" y="541" width="7" height="13" fill="black"/>
<rect x="17" y="541" width="7" height="13" fill="black"/>
<rect x="35" y="541" width="7" height="13" fill="black"/>
<rect x="17" y="571" width="7" height="13" fill="black"/>
<rect x="35" y="571" width="7" height="13" fill="black"/>
<rect x="-19" y="601" width="7" height="13" fill="black"/>
<rect x="-1" y="601" width="7" height="13" fill="black"/>
<rect x="17" y="601" width="7" height="13" fill="black"/>
<rect x="35" y="631" width="7" height="13" fill="black"/>
<rect x="-19" y="661" width="7" height="13" fill="black"/>
<rect x="-1" y="661" width="7" height="13" fill="black"/>
<rect x="17" y="661" width="7" height="13" fill="black"/>
<rect x="-19" y="691" width="7" height="13" fill="black"/>
<rect x="-1" y="691" width="7" height="13" fill="black"/>
<rect x="-19" y="721" width="7" height="13" fill="black"/>
<rect x="17" y="721" width="7" height="13" fill="black"/>
<rect x="35" y="751" width="7" height="13" fill="black"/>
<rect x="-19" y="781" width="7" height="13" fill="black"/>
<rect x="-1" y="781" width="7" height="13" fill="black"/>
<rect x="-1" y="811" width="7" height="13" fill="black"/>
<rect x="17" y="811" width="7" height="13" fill="black"/>
<rect x="-1" y="871" width="7" height="13" fill="black"/>
<rect x="35" y="871" width="7" height="13" fill="black"/>
<rect x="67" y="473" width="7" height="13" fill="black"/>
<rect x="85" y="473" width="7" height="13" fill="black"/>
<rect x="103" y="473" width="7" height="13" fill="black"/>
<rect x="121" y="473" width="7" height="13" fill="black"/>
<rect x="67" y="503" width="7" height="13" fill="black"/>
<rect x="139" y="503" width="7" height="13" fill="black"/>
<rect x="157" y="503" width="7" height="13" fill="black"/>
<rect x="67" y="533" width="7" height="13" fill="black"/>
<rect x="85" y="533" width="7" height="13" fill="black"/>
<rect x="103" y="533" width="7" height="13" fill="black"/>
<rect x="67" y="563" width="7" height="13" fill="black"/>
<rect x="121" y="563" width="7" height="13" fill="black"/>
<rect x="103" y="593" width="7" height="13" fill="black"/>
<rect x="121" y="593" width="7" height="13" fill="black"/>
<rect x="157" y="593" width="7" height="13" fill="black"/>
<rect x="103" y="623" width="7" height="13" fill="black"/>
<rect x="67" y="653" width="7" height="13" fill="black"/>
<rect x="85" y="653" width="7" height="13" fill="black"/>
<rect x="103" y="653" width="7" height="13" fill="black"/>
<rect x="157" y="653" width="7" height="13" fill="black"/>
<rect x="121" y="683" width="7" height="13" fill="black"/>
<rect x="157" y="683" width="7" height="13" fill="black"/>
<rect x="67" y="713" width="7" height="13" fill="black"/>
<rect x="103" y="743" width="7" height="13" fill="black"/>
<rect x="121" y="743" width="7" height="13" fill="black"/>
<rect x="139" y="743" width="7" height="13" fill="black"/>
<rect x="157" y="743" width="7" height="13" fill="black"/>
<rect x="85" y="773" width="7" height="13" fill="black"/>
<rect x="121" y="773" width="7" height="13" fill="black"/>
<rect x="157" y="773" width="7" height="13" fill="black"/>
<rect x="103" y="833" width="7" height="13" fill="black"/>
<rect x="139" y="833" width="7" height="13" fill="black"/>
<rect x="157" y="833" width="7" height="13" fill="black"/>
<rect x="85" y="863" width="7" height="13" fill="black"/>
<rect x="157" y="863" width="7" height="13" fill="black"/>
<rect x="186" y="297" width="7" height="13" fill="black"/>
<rect x="186" y="327" width="7" height="13" fill="black"/>
<rect x="222" y="327" width="7" height="13" fill="black"/>
<rect x="186" y="357" width="7" height="13" fill="black"/>
<rect x="222" y="357" width="7" height="13" fill="black"/>
<rect x="186" y="417" width="7" height="13" fill="black"/>
<rect x="222" y="417" width="7" height="13" fill="black"/>
<rect x="186" y="447" width="7" height="13" fill="black"/>
<rect x="222" y="447" width="7" height="13" fill="black"/>
<rect x="186" y="477" width="7" height="13" fill="black"/>
<rect x="204" y="477" width="7" height="13" fill="black"/>
<rect x="186" y="537" width="7" height="13" fill="black"/>
<rect x="204" y="567" width="7" height="13" fill="black"/>
<rect x="222" y="567" width="7" height="13" fill="black"/>
<rect x="204" y="597" width="7" height="13" fill="black"/>
<rect x="222" y="597" width="7" height="13" fill="black"/>
<rect x="186" y="627" width="7" height="13" fill="black"/>
<rect x="204" y="657" width="7" height="13" fill="black"/>
<rect x="204" y="687" width="7" height="13" fill="black"/>
<rect x="204" y="717" width="7" height="13" fill="black"/>
<rect x="186" y="747" width="7" height="13" fill="black"/>
<rect x="204" y="777" width="7" height="13" fill="black"/>
<rect x="204" y="807" width="7" height="13" fill="black"/>
<rect x="222" y="807" width="7" height="13" fill="black"/>
<rect x="186" y="837" width="7" height="13" fill="black"/>
<rect x="222" y="837" width="7" height="13" fill="black"/>
<rect x="222" y="867" width="7" height="13" fill="black"/>
<rect x="257" y="509" width="7" height="13" fill="black"/>
<rect x="293" y="509" width="7" height="13" fill="black"/>
<rect x="311" y="509" width="7" height="13" fill="black"/>
<rect x="383" y="509" width="7" height="13" fill="black"/>
<rect x="257" y="539" width="7" height="13" fill="black"/>
<rect x="275" y="539" width="7" height="13" fill="black"/>
<rect x="311" y="539" width="7" height="13" fill="black"/>
<rect x="329" y="539" width="7" height="13" fill="black"/>
<rect x="347" y="539" width="7" height="13" fill="black"/>
<rect x="257" y="569" width="7" height="13" fill="black"/>
<rect x="275" y="569" width="7" height="13" fill="black"/>
<rect x="347" y="569" width="7" height="13" fill="black"/>
<rect x="365" y="569" width="7" height="13" fill="black"/>
<rect x="257" y="599" width="7" height="13" fill="black"/>
<rect x="275" y="599" width="7" height="13" fill="black"/>
<rect x="347" y="599" width="7" height="13" fill="black"/>
<rect x="383" y="599" width="7" height="13" fill="black"/>
<rect x="275" y="629" width="7" height="13" fill="black"/>
<rect x="293" y="629" width="7" height="13" fill="black"/>
<rect x="347" y="629" width="7" height="13" fill="black"/>
<rect x="365" y="629" width="7" height="13" fill="black"/>
<rect x="383" y="629" width="7" height="13" fill="black"/>
<rect x="257" y="659" width="7" height="13" fill="black"/>
<rect x="275" y="659" width="7" height="13" fill="black"/>
<rect x="293" y="659" width="7" height="13" fill="black"/>
<rect x="311" y="659" width="7" height="13" fill="black"/>
<rect x="329" y="659" width="7" height="13" fill="black"/>
<rect x="347" y="659" width="7" height="13" fill="black"/>
<rect x="365" y="659" width="7" height="13" fill="black"/>
<rect x="257" y="689" width="7" height="13" fill="black"/>
<rect x="293" y="689" width="7" height="13" fill="black"/>
<rect x="311" y="689" width="7" height="13" fill="black"/>
<rect x="329" y="689" width="7" height="13" fill="black"/>
<rect x="347" y="689" width="7" height="13" fill="black"/>
<rect x="365" y="689" width="7" height="13" fill="black"/>
<rect x="275" y="719" width="7" height="13" fill="black"/>
<rect x="329" y="719" width="7" height="13" fill="black"/>
<rect x="275" y="749" width="7" height="13" fill="black"/>
<rect x="347" y="749" width="7" height="13" fill="black"/>
<rect x="293" y="779" width="7" height="13" fill="black"/>
<rect x="311" y="779" width="7" height="13" fill="black"/>
<rect x="329" y="779" width="7" height="13" fill="black"/>
<rect x="347" y="779" width="7" height="13" fill="black"/>
<rect x="383" y="779" width="7" height="13" fill="black"/>
<rect x="257" y="809" width="7" height="13" fill="black"/>
<rect x="275" y="809" width="7" height="13" fill="black"/>
<rect x="347" y="809" width="7" height="13" fill="black"/>
<rect x="365" y="809" width="7" height="13" fill="black"/>
<rect x="383" y="809" width="7" height="13" fill="black"/>
<rect x="275" y="839" width="7" height="13" fill="black"/>
<rect x="311" y="839" width="7" height="13" fill="black"/>
<rect x="383" y="839" width="7" height="13" fill="black"/>
<rect x="275" y="869" width="7" height="13" fill="black"/>
<rect x="293" y="869" width="7" height="13" fill="black"/>
<rect x="311" y="869" width="7" height="13" fill="black"/>
<rect x="329" y="869" width="7" height="13" fill="black"/>
<rect x="383" y="869" width="7" height="13" fill="black"/>
<rect x="403" y="455" width="7" height="13" fill="black"/>
<rect x="421" y="455" width="7" height="13" fill="black"/>
<rect x="439" y="455" width="7" height="13" fill="black"/>
<rect x="457" y="455" width="7" height="13" fill="black"/>
<rect x="475" y="455" width="7" height="13" fill="black"/>
<rect x="493" y="455" width="7" height="13" fill="black"/>
<rect x="511" y="455" width="7" height="13" fill="black"/>
<rect x="529" y="455" width="7" height="13" fill="black"/>
<rect x="403" y="485" width="7" height="13" fill="black"/>
<rect x="439" y="485" width="7" height="13" fill="black"/>
<rect x="529" y="485" width="7" height="13" fill="black"/>
<rect x="403" y="515" width="7" height="13" fill="black"/>
<rect x="439" y="515" width="7" height="13" fill="black"/>
<rect x="493" y="515" width="7" height="13" fill="black"/>
<rect x="457" y="545" width="7" height="13" fill="black"/>
<rect x="475" y="545" width="7" height="13" fill="black"/>
<rect x="493" y="545" width="7" height="13" fill="black"/>
<rect x="493" y="575" width="7" height="13" fill="black"/>
<rect x="511" y="575" width="7" height="13" fill="black"/>
<rect x="529" y="575" width="7" height="13" fill="black"/>
<rect x="403" y="605" width="7" height="13" fill="black"/>
<rect x="421" y="605" width="7" height="13" fill="black"/>
<rect x="403" y="635" width="7" height="13" fill="black"/>
<rect x="511" y="635" width="7" height="13" fill="black"/>
<rect x="403" y="665" width="7" height="13" fill="black"/>
<rect x="421" y="665" width="7" height="13" fill="black"/>
<rect x="439" y="665" width="7" height="13" fill="black"/>
<rect x="475" y="665" width="7" height="13" fill="black"/>
<rect x="403" y="695" width="7" height="13" fill="black"/>
<rect x="511" y="695" width="7" height="13" fill="black"/>
<rect x="529" y="695" width="7" height="13" fill="black"/>
<rect x="403" y="725" width="7" height="13" fill="black"/>
<rect x="439" y="725" width="7" height="13" fill="black"/>
<rect x="475" y="725" width="7" height="13" fill="black"/>
<rect x="493" y="725" width="7" height="13" fill="black"/>
<rect x="511" y="725" width="7" height="13" fill="black"/>
<rect x="439" y="755" width="7" height="13" fill="black"/>
<rect x="511" y="755" width="7" height="13" fill="black"/>
<rect x="403" y="785" width="7" height="13" fill="black"/>
<rect x="457" y="785" width="7" height="13" fill="black"/>
<rect x="403" y="815" width="7" height="13" fill="black"/>
<rect x="421" y="815" width="7" height="13" fill="black"/>
<rect x="457" y="815" width="7" height="13" fill="black"/>
<rect x="493" y="815" width="7" height="13" fill="black"/>
<rect x="403" y="845" width="7" height="13" fill="black"/>
<rect x="493" y="845" width="7" height="13" fill="black"/>
<rect x="403" y="875" width="7" height="13" fill="black"/>
<rect x="421" y="875" width="7" height="13" fill="black"/>
<rect x="475" y="875" width="7" height="13" fill="black"/>
<rect x="493" y="875" width="7" height="13" fill="black"/>
<rect x="511" y="875" width="7" height="13" fill="black"/>
<rect x="529" y="875" width="7" height="13" fill="black"/>
<rect x="589" y="446" width="7" height="13" fill="black"/>
<rect x="643" y="446" width="7" height="13" fill="black"/>
<rect x="625" y="476" width="7" height="13" fill="black"/>
<rect x="643" y="476" width="7" height="13" fill="black"/>
<rect x="571" y="506" width="7" height="13" fill="black"/>
<rect x="625" y="506" width="7" height="13" fill="black"/>
<rect x="643" y="506" width="7" height="13" fill="black"/>
<rect x="571" y="536" width="7" height="13" fill="black"/>
<rect x="589" y="536" width="7" height="13" fill="black"/>
<rect x="607" y="536" width="7" height="13" fill="black"/>
<rect x="643" y="536" width="7" height="13" fill="black"/>
<rect x="589" y="566" width="7" height="13" fill="black"/>
<rect x="607" y="566" width="7" height="13" fill="black"/>
<rect x="625" y="566" width="7" height="13" fill="black"/>
<rect x="643" y="566" width="7" height="13" fill="black"/>
<rect x="571" y="596" width="7" height="13" fill="black"/>
<rect x="643" y="626" width="7" height="13" fill="black"/>
<rect x="643" y="656" width="7" height="13" fill="black"/>
<rect x="571" y="686" width="7" height="13" fill="black"/>
<rect x="607" y="686" width="7" height="13" fill="black"/>
<rect x="643" y="686" width="7" height="13" fill="black"/>
<rect x="571" y="716" width="7" height="13" fill="black"/>
<rect x="625" y="716" width="7" height="13" fill="black"/>
<rect x="571" y="746" width="7" height="13" fill="black"/>
<rect x="607" y="746" width="7" height="13" fill="black"/>
<rect x="625" y="746" width="7" height="13" fill="black"/>
<rect x="643" y="746" width="7" height="13" fill="black"/>
<rect x="571" y="776" width="7" height="13" fill="black"/>
<rect x="625" y="776" width="7" height="13" fill="black"/>
<rect x="607" y="806" width="7" height="13" fill="black"/>
<rect x="625" y="806" width="7" height="13" fill="black"/>
<rect x="643" y="806" width="7" height="13" fill="black"/>
<rect x="571" y="836" width="7" height="13" fill="black"/>
<rect x="589" y="836" width="7" height="13" fill="black"/>
<rect x="607" y="836" width="7" height="13" fill="black"/>
<rect x="625" y="836" width="7" height="13" fill="black"/>
<rect x="672" y="329" width="7" height="13" fill="black"/>
<rect x="690" y="329" width="7" height="13" fill="black"/>
<rect x="708" y="329" width="7" height="13" fill="black"/>
<rect x="726" y="329" width="7" height="13" fill="black"/>
<rect x="762" y="329" width="7" height="13" fill="black"/>
<rect x="780" y="329" width="7" height="13" fill="black"/>
<rect x="690" y="359" width="7" height="13" fill="black"/>
<rect x="708" y="359" width="7" height="13" fill="black"/>
<rect x="726" y="359" width="7" height="13" fill="black"/>
<rect x="744" y="359" width="7" height="13" fill="black"/>
<rect x="762" y="359" width="7" height="13" fill="black"/>
<rect x="690" y="389" width="7" height="13" fill="black"/>
<rect x="708" y="389" width="7" height="13" fill="black"/>
<rect x="762" y="389" width="7" height="13" fill="black"/>
<rect x="798" y="389" width="7" height="13" fill="black"/>
<rect x="672" y="419" width="7" height="13" fill="black"/>
<rect x="762" y="419" width="7" height="13" fill="black"/>
<rect x="780" y="419" width="7" height="13" fill="black"/>
<rect x="798" y="419" width="7" height="13" fill="black"/>
<rect x="672" y="449" width="7" height="13" fill="black"/>
<rect x="780" y="449" width="7" height="13" fill="black"/>
<rect x="672" y="479" width="7" height="13" fill="black"/>
<rect x="708" y="479" width="7" height="13" fill="black"/>
<rect x="762" y="479" width="7" height="13" fill="black"/>
<rect x="780" y="479" width="7" height="13" fill="black"/>
<rect x="798" y="479" width="7" height="13" fill="black"/>
<rect x="708" y="509" width="7" height="13" fill="black"/>
<rect x="726" y="509" width="7" height="13" fill="black"/>
<rect x="744" y="509" width="7" height="13" fill="black"/>
<rect x="780" y="509" width="7" height="13" fill="black"/>
<rect x="798" y="509" width="7" height="13" fill="black"/>
<rect x="690" y="539" width="7" height="13" fill="black"/>
<rect x="708" y="539" width="7" height="13" fill="black"/>
<rect x="672" y="569" width="7" height="13" fill="black"/>
<rect x="690" y="569" width="7" height="13" fill="black"/>
<rect x="744" y="569" width="7" height="13" fill="black"/>
<rect x="762" y="569" width="7" height="13" fill="black"/>
<rect x="690" y="599" width="7" height="13" fill="black"/>
<rect x="744" y="599" width="7" height="13" fill="black"/>
<rect x="762" y="599" width="7" height="13" fill="black"/>
<rect x="780" y="599" width="7" height="13" fill="black"/>
<rect x="690" y="629" width="7" height="13" fill="black"/>
<rect x="762" y="629" width="7" height="13" fill="black"/>
<rect x="798" y="629" width="7" height="13" fill="black"/>
<rect x="690" y="659" width="7" height="13" fill="black"/>
<rect x="708" y="659" width="7" height="13" fill="black"/>
<rect x="744" y="659" width="7" height="13" fill="black"/>
<rect x="798" y="659" width="7" height="13" fill="black"/>
<rect x="672" y="689" width="7" height="13" fill="black"/>
<rect x="744" y="689" width="7" height="13" fill="black"/>
<rect x="762" y="689" width="7" height="13" fill="black"/>
<rect x="780" y="689" width="7" height="13" fill="black"/>
<rect x="672" y="719" width="7" height="13" fill="black"/>
<rect x="690" y="719" width="7" height="13" fill="black"/>
<rect x="708" y="719" width="7" height="13" fill="black"/>
<rect x="726" y="719" width="7" height="13" fill="black"/>
<rect x="690" y="749" width="7" height="13" fill="black"/>
<rect x="708" y="749" width="7" height="13" fill="black"/>
<rect x="762" y="749" width="7" height="13" fill="black"/>
<rect x="798" y="749" width="7" height="13" fill="black"/>
<rect x="672" y="779" width="7" height="13" fill="black"/>
<rect x="690" y="779" width="7" height="13" fill="black"/>
<rect x="708" y="779" width="7" height="13" fill="black"/>
<rect x="726" y="779" width="7" height="13" fill="black"/>
<rect x="744" y="779" width="7" height="13" fill="black"/>
<rect x="762" y="779" width="7" height="13" fill="black"/>
<rect x="798" y="779" width="7" height="13" fill="black"/>
<rect x="690" y="809" width="7" height="13" fill="black"/>
<rect x="708" y="809" width="7" height="13" fill="black"/>
<rect x="780" y="809" width="7" height="13" fill="black"/>
<rect x="672" y="839" width="7" height="13" fill="black"/>
<rect x="708" y="839" width="7" height="13" fill="black"/>
<rect x="726" y="839" width="7" height="13" fill="black"/>
<rect x="762" y="839" width="7" height="13" fill="black"/>
<rect x="690" y="869" width="7" height="13" fill="black"/>
<rect x="708" y="869" width="7" height="13" fill="black"/>
<rect x="726" y="869" width="7" height="13" fill="black"/>
<rect x="762" y="869" width="7" height="13" fill="black"/>
<rect x="822" y="340" width="7" height="13" fill="black"/>
<rect x="840" y="340" width="7" height="13" fill="black"/>
<rect x="894" y="340" width="7" height="13" fill="black"/>
<rect x="930" y="340" width="7" height="13" fill="black"/>
<rect x="822" y="370" width="7" height="13" fill="black"/>
<rect x="840" y="370" width="7" height="13" fill="black"/>
<rect x="930" y="370" width="7" height="13" fill="black"/>
<rect x="822" y="400" width="7" height="13" fill="black"/>
<rect x="840" y="400" width="7" height="13" fill="black"/>
<rect x="894" y="400" width="7" height="13" fill="black"/>
<rect x="912" y="400" width="7" height="13" fill="black"/>
<rect x="930" y="400" width="7" height="13" fill="black"/>
<rect x="822" y="430" width="7" height="13" fill="black"/>
<rect x="858" y="430" width="7" height="13" fill="black"/>
<rect x="840" y="460" width="7" height="13" fill="black"/>
<rect x="858" y="460" width="7" height="13" fill="black"/>
<rect x="876" y="460" width="7" height="13" fill="black"/>
<rect x="912" y="460" width="7" height="13" fill="black"/>
<rect x="930" y="460" width="7" height="13" fill="black"/>
<rect x="840" y="490" width="7" height="13" fill="black"/>
<rect x="858" y="490" width="7" height="13" fill="black"/>
<rect x="876" y="490" width="7" height="13" fill="black"/>
<rect x="912" y="490" width="7" height="13" fill="black"/>
<rect x="858" y="520" width="7" height="13" fill="black"/>
<rect x="876" y="520" width="7" height="13" fill="black"/>
<rect x="894" y="520" width="7" height="13" fill="black"/>
<rect x="840" y="550" width="7" height="13" fill="black"/>
<rect x="840" y="580" width="7" height="13" fill="black"/>
<rect x="876" y="580" width="7" height="13" fill="black"/>
<rect x="912" y="580" width="7" height="13" fill="black"/>
<rect x="822" y="610" width="7" height="13" fill="black"/>
<rect x="840" y="610" width="7" height="13" fill="black"/>
<rect x="858" y="610" width="7" height="13" fill="black"/>
<rect x="876" y="610" width="7" height="13" fill="black"/>
<rect x="930" y="610" width="7" height="13" fill="black"/>
<rect x="822" y="640" width="7" height="13" fill="black"/>
<rect x="876" y="640" width="7" height="13" fill="black"/>
<rect x="822" y="670" width="7" height="13" fill="black"/>
<rect x="912" y="670" width="7" height="13" fill="black"/>
<rect x="930" y="670" width="7" height="13" fill="black"/>
<rect x="822" y="700" width="7" height="13" fill="black"/>
<rect x="840" y="700" width="7" height="13" fill="black"/>
<rect x="912" y="700" width="7" height="13" fill="black"/>
<rect x="840" y="730" width="7" height="13" fill="black"/>
<rect x="894" y="730" width="7" height="13" fill="black"/>
<rect x="822" y="760" width="7" height="13" fill="black"/>
<rect x="840" y="760" width="7" height="13" fill="black"/>
<rect x="858" y="760" width="7" height="13" fill="black"/>
<rect x="876" y="760" width="7" height="13" fill="black"/>
<rect x="894" y="760" width="7" height="13" fill="black"/>
<rect x="822" y="790" width="7" height="13" fill="black"/>
<rect x="840" y="790" width="7" height="13" fill="black"/>
<rect x="858" y="790" width="7" height="13" fill="black"/>
<rect x="894" y="790" width="7" height="13" fill="black"/>
<rect x="912" y="790" width="7" height="13" fill="black"/>
<rect x="930" y="790" width="7" height="13" fill="black"/>
<rect x="858" y="820" width="7" height="13" fill="black"/>
<rect x="876" y="820" width="7" height="13" fill="black"/>
<rect x="894" y="820" width="7" height="13" fill="black"/>
<rect x="822" y="850" width="7" height="13" fill="black"/>
<rect x="840" y="850" width="7" height="13" fill="black"/>
<rect x="894" y="850" width="7" height="13" fill="black"/>
<rect x="912" y="850" width="7" height="13" fill="black"/>
<rect x="958" y="491" width="7" height="13" fill="black"/>
<rect x="994" y="491" width="7" height="13" fill="black"/>
<rect x="1012" y="491" width="7" height="13" fill="black"/>
<rect x="1066" y="491" width="7" height="13" fill="black"/>
<rect x="1084" y="491" width="7" height="13" fill="black"/>
<rect x="976" y="521" width="7" height="13" fill="black"/>
<rect x="994" y="521" width="7" height="13" fill="black"/>
<rect x="1030" y="521" width="7" height="13" fill="black"/>
<rect x="1066" y="521" width="7" height="13" fill="black"/>
<rect x="958" y="551" width="7" height="13" fill="black"/>
<rect x="976" y="551" width="7" height="13" fill="black"/>
<rect x="994" y="551" width="7" height="13" fill="black"/>
<rect x="1066" y="551" width="7" height="13" fill="black"/>
<rect x="958" y="581" width="7" height="13" fill="black"/>
<rect x="976" y="581" width="7" height="13" fill="black"/>
<rect x="994" y="581" width="7" height="13" fill="black"/>
<rect x="1012" y="581" width="7" height="13" fill="black"/>
<rect x="1030" y="581" width="7" height="13" fill="black"/>
<rect x="1066" y="581" width="7" height="13" fill="black"/>
<rect x="1084" y="581" width="7" height="13" fill="black"/>
<rect x="994" y="611" width="7" height="13" fill="black"/>
<rect x="1012" y="611" width="7" height="13" fill="black"/>
<rect x="1066" y="611" width="7" height="13" fill="black"/>
<rect x="1084" y="611" width="7" height="13" fill="black"/>
<rect x="976" y="641" width="7" height="13" fill="black"/>
<rect x="1048" y="641" width="7" height="13" fill="black"/>
<rect x="1084" y="641" width="7" height="13" fill="black"/>
<rect x="1012" y="671" width="7" height="13" fill="black"/>
<rect x="1030" y="671" width="7" height="13" fill="black"/>
<rect x="1048" y="671" width="7" height="13" fill="black"/>
<rect x="1084" y="671" width="7" height="13" fill="black"/>
<rect x="958" y="701" width="7" height="13" fill="black"/>
<rect x="976" y="701" width="7" height="13" fill="black"/>
<rect x="1030" y="701" width="7" height="13" fill="black"/>
<rect x="1084" y="701" width="7" height="13" fill="black"/>
<rect x="976" y="731" width="7" height="13" fill="black"/>
<rect x="1048" y="731" width="7" height="13" fill="black"/>
<rect x="1030" y="761" width="7" height="13" fill="black"/>
<rect x="1084" y="761" width="7" height="13" fill="black"/>
<rect x="1012" y="791" width="7" height="13" fill="black"/>
<rect x="1048" y="791" width="7" height="13" fill="black"/>
<rect x="1066" y="791" width="7" height="13" fill="black"/>
<rect x="958" y="821" width="7" height="13" fill="black"/>
<rect x="1012" y="821" width="7" height="13" fill="black"/>
<rect x="1048" y="821" width="7" height="13" fill="black"/>
<rect x="976" y="851" width="7" height="13" fill="black"/>
<rect x="1012" y="851" width="7" height="13" fill="black"/>
<rect x="1048" y="851" width="7" height="13" fill="black"/>
<rect x="1152" y="507" width="7" height="13" fill="black"/>
<rect x="1188" y="507" width="7" height="13" fill="black"/>
<rect x="1134" y="537" width="7" height="13" fill="black"/>
<rect x="1188" y="537" width="7" height="13" fill="black"/>
<rect x="1206" y="537" width="7" height="13" fill="black"/>
<rect x="1134" y="567" width="7" height="13" fill="black"/>
<rect x="1170" y="567" width="7" height="13" fill="black"/>
<rect x="1206" y="567" width="7" height="13" fill="black"/>
<rect x="1116" y="597" width="7" height="13" fill="black"/>
<rect x="1152" y="597" width="7" height="13" fill="black"/>
<rect x="1170" y="597" width="7" height="13" fill="black"/>
<rect x="1188" y="597" width="7" height="13" fill="black"/>
<rect x="1206" y="597" width="7" height="13" fill="black"/>
<rect x="1116" y="627" width="7" height="13" fill="black"/>
<rect x="1134" y="627" width="7" height="13" fill="black"/>
<rect x="1152" y="627" width="7" height="13" fill="black"/>
<rect x="1116" y="657" width="7" height="13" fill="black"/>
<rect x="1152" y="657" width="7" height="13" fill="black"/>
<rect x="1206" y="657" width="7" height="13" fill="black"/>
<rect x="1188" y="687" width="7" height="13" fill="black"/>
<rect x="1134" y="717" width="7" height="13" fill="black"/>
<rect x="1170" y="717" width="7" height="13" fill="black"/>
<rect x="1116" y="747" width="7" height="13" fill="black"/>
<rect x="1170" y="747" width="7" height="13" fill="black"/>
<rect x="1206" y="747" width="7" height="13" fill="black"/>
<rect x="1134" y="777" width="7" height="13" fill="black"/>
<rect x="1116" y="807" width="7" height="13" fill="black"/>
<rect x="1134" y="807" width="7" height="13" fill="black"/>
<rect x="1152" y="807" width="7" height="13" fill="black"/>
<rect x="1170" y="807" width="7" height="13" fill="black"/>
<rect x="1152" y="837" width="7" height="13" fill="black"/>
<rect x="1170" y="837" width="7" height="13" fill="black"/>
<rect x="1206" y="837" width="7" height="13" fill="black"/>
<rect x="1116" y="867" width="7" height="13" fill="black"/>
<rect x="1134" y="867" width="7" height="13" fill="black"/>
<rect x="1152" y="867" width="7" height="13" fill="black"/>
<rect x="1170" y="867" width="7" height="13" fill="black"/>
<rect x="1188" y="867" width="7" height="13" fill="black"/>
<rect x="1251" y="436" width="7" height="13" fill="black"/>
<rect x="1287" y="436" width="7" height="13" fill="black"/>
<rect x="1233" y="466" width="7" height="13" fill="black"/>
<rect x="1269" y="466" width="7" height="13" fill="black"/>
<rect x="1287" y="466" width="7" height="13" fill="black"/>
<rect x="1233" y="496" width="7" height="13" fill="black"/>
<rect x="1233" y="526" width="7" height="13" fill="black"/>
<rect x="1251" y="526" width="7" height="13" fill="black"/>
<rect x="1269" y="526" width="7" height="13" fill="black"/>
<rect x="1251" y="556" width="7" height="13" fill="black"/>
<rect x="1287" y="556" width="7" height="13" fill="black"/>
<rect x="1269" y="586" width="7" height="13" fill="black"/>
<rect x="1233" y="616" width="7" height="13" fill="black"/>
<rect x="1287" y="616" width="7" height="13" fill="black"/>
<rect x="1233" y="646" width="7" height="13" fill="black"/>
<rect x="1269" y="646" width="7" height="13" fill="black"/>
<rect x="1251" y="676" width="7" height="13" fill="black"/>
<rect x="1269" y="676" width="7" height="13" fill="black"/>
<rect x="1287" y="706" width="7" height="13" fill="black"/>
<rect x="1233" y="736" width="7" height="13" fill="black"/>
<rect x="1251" y="736" width="7" height="13" fill="black"/>
<rect x="1269" y="736" width="7" height="13" fill="black"/>
<rect x="1269" y="766" width="7" height="13" fill="black"/>
<rect x="1233" y="826" width="7" height="13" fill="black"/>
<rect x="1251" y="826" width="7" height="13" fill="black"/>
<rect x="1269" y="826" width="7" height="13" fill="black"/>
<rect x="1287" y="826" width="7" height="13" fill="black"/>
<rect x="1233" y="856" width="7" height="13" fill="black"/>
<rect x="1329" y="541" width="7" height="13" fill="black"/>
<rect x="1365" y="541" width="7" height="13" fill="black"/>
<rect x="1401" y="541" width="7" height="13" fill="black"/>
<rect x="1419" y="541" width="7" height="13" fill="black"/>
<rect x="1329" y="571" width="7" height="13" fill="black"/>
<rect x="1365" y="571" width="7" height="13" fill="black"/>
<rect x="1383" y="571" width="7" height="13" fill="black"/>
<rect x="1401" y="571" width="7" height="13" fill="black"/>
<rect x="1329" y="601" width="7" height="13" fill="black"/>
<rect x="1365" y="601" width="7" height="13" fill="black"/>
<rect x="1383" y="601" width="7" height="13" fill="black"/>
<rect x="1347" y="631" width="7" height="13" fill="black"/>
<rect x="1419" y="631" width="7" height="13" fill="black"/>
<rect x="1329" y="661" width="7" height="13" fill="black"/>
<rect x="1347" y="661" width="7" height="13" fill="black"/>
<rect x="1383" y="661" width="7" height="13" fill="black"/>
<rect x="1419" y="661" width="7" height="13" fill="black"/>
<rect x="1437" y="661" width="7" height="13" fill="black"/>
<rect x="1311" y="691" width="7" height="13" fill="black"/>
<rect x="1347" y="691" width="7" height="13" fill="black"/>
<rect x="1365" y="691" width="7" height="13" fill="black"/>
<rect x="1383" y="691" width="7" height="13" fill="black"/>
<rect x="1401" y="691" width="7" height="13" fill="black"/>
<rect x="1347" y="721" width="7" height="13" fill="black"/>
<rect x="1383" y="721" width="7" height="13" fill="black"/>
<rect x="1311" y="751" width="7" height="13" fill="black"/>
<rect x="1383" y="751" width="7" height="13" fill="black"/>
<rect x="1401" y="751" width="7" height="13" fill="black"/>
<rect x="1419" y="751" width="7" height="13" fill="black"/>
<rect x="1437" y="751" width="7" height="13" fill="black"/>
<rect x="1401" y="781" width="7" height="13" fill="black"/>
<rect x="1419" y="781" width="7" height="13" fill="black"/>
<rect x="1437" y="781" width="7" height="13" fill="black"/>
<rect x="1329" y="811" width="7" height="13" fill="black"/>
<rect x="1347" y="811" width="7" height="13" fill="black"/>
<rect x="1383" y="811" width="7" height="13" fill="black"/>
<rect x="1401" y="811" width="7" height="13" fill="black"/>
<rect x="1419" y="811" width="7" height="13" fill="black"/>
<rect x="1311" y="841" width="7" height="13" fill="black"/>
<rect x="1329" y="841" width="7" height="13" fill="black"/>
<rect x="1419" y="841" width="7" height="13" fill="black"/>
<rect x="1347" y="871" width="7" height="13" fill="black"/>
<rect x="1401" y="871" width="7" height="13" fill="black"/>
<rect x="1437" y="871" width="7" height="13" fill="black"/>
<rect x="1483" y="485" width="7" height="13" fill="black"/>
<rect x="1501" y="485" width="7" height="13" fill="black"/>
<rect x="1519" y="485" width="7" height="13" fill="black"/>
<rect x="1501" y="515" width="7" height="13" fill="black"/>
<rect x="1519" y="515" width="7" height="13" fill="black"/>
<rect x="1465" y="545" width="7" height="13" fill="black"/>
<rect x="1501" y="545" width="7" height="13" fill="black"/>
<rect x="1519" y="545" width="7" height="13" fill="black"/>
<rect x="1465" y="575" width="7" height="13" fill="black"/>
<rect x="1501" y="575" width="7" height="13" fill="black"/>
<rect x="1465" y="605" width="7" height="13" fill="black"/>
<rect x="1483" y="605" width="7" height="13" fill="black"/>
<rect x="1519" y="605" width="7" height="13" fill="black"/>
<rect x="1465" y="635" width="7" height="13" fill="black"/>
<rect x="1501" y="635" width="7" height="13" fill="black"/>
<rect x="1519" y="665" width="7" height="13" fill="black"/>
<rect x="1483" y="695" width="7" height="13" fill="black"/>
<rect x="1519" y="695" width="7" height="13" fill="black"/>
<rect x="1483" y="725" width="7" height="13" fill="black"/>
<rect x="1501" y="725" width="7" height="13" fill="black"/>
<rect x="1519" y="725" width="7" height="13" fill="black"/>
<rect x="1501" y="755" width="7" height="13" fill="black"/>
<rect x="1465" y="785" width="7" height="13" fill="black"/>
<rect x="1501" y="815" width="7" height="13" fill="black"/>
<rect x="1519" y="815" width="7" height="13" fill="black"/>
<rect x="1465" y="845" width="7" height="13" fill="black"/>
<rect x="1465" y="875" width="7" height="13" fill="black"/>
<rect x="1556" y="603" width="7" height="13" fill="black"/>
<rect x="1574" y="603" width="7" height="13" fill="black"/>
<rect x="1556" y="633" width="7" height="13" fill="black"/>
<rect x="1574" y="633" width="7" height="13" fill="black"/>
<rect x="1592" y="633" width="7" height="13" fill="black"/>
<rect x="1592" y="663" width="7" height="13" fill="black"/>
<rect x="1556" y="693" width="7" height="13" fill="black"/>
<rect x="1574" y="693" width="7" height="13" fill="black"/>
<rect x="1592" y="693" width="7" height="13" fill="black"/>
<rect x="1574" y="723" width="7" height="13" fill="black"/>
<rect x="1592" y="723" width="7" height="13" fill="black"/>
<rect x="1556" y="753" width="7" height="13" fill="black"/>
<rect x="1556" y="783" width="7" height="13" fill="black"/>
<rect x="1592" y="783" width="7" height="13" fill="black"/>
<rect x="1556" y="813" width="7" height="13" fill="black"/>
<rect x="1592" y="843" width="7" height="13" fill="black"/>
<rect x="1574" y="873" width="7" height="13" fill="black"/>
<rect x="1592" y="873" width="7" height="13" fill="black"/>
<rect x="1627" y="546" width="7" height="13" fill="black"/>
<rect x="1645" y="546" width="7" height="13" fill="black"/>
<rect x="1663" y="546" width="7" height="13" fill="black"/>
<rect x="1717" y="546" width="7" height="13" fill="black"/>
<rect x="1627" y="576" width="7" height="13" fill="black"/>
<rect x="1645" y="576" width="7" height="13" fill="black"/>
<rect x="1681" y="576" width="7" height="13" fill="black"/>
<rect x="1735" y="576" width="7" height="13" fill="black"/>
<rect x="1663" y="606" width="7" height="13" fill="black"/>
<rect x="1681" y="606" width="7" height="13" fill="black"/>
<rect x="1699" y="636" width="7" height="13" fill="black"/>
<rect x="1717" y="636" width="7" height="13" fill="black"/>
<rect x="1627" y="666" width="7" height="13" fill="black"/>
<rect x="1717" y="666" width="7" height="13" fill="black"/>
<rect x="1717" y="696" width="7" height="13" fill="black"/>
<rect x="1645" y="726" width="7" height="13" fill="black"/>
<rect x="1699" y="726" width="7" height="13" fill="black"/>
<rect x="1735" y="726" width="7" height="13" fill="black"/>
<rect x="1681" y="756" width="7" height="13" fill="black"/>
<rect x="1735" y="786" width="7" height="13" fill="black"/>
<rect x="1645" y="816" width="7" height="13" fill="black"/>
<rect x="1681" y="816" width="7" height="13" fill="black"/>
<rect x="1717" y="816" width="7" height="13" fill="black"/>
<rect x="1735" y="816" width="7" height="13" fill="black"/>
<rect x="1627" y="846" width="7" height="13" fill="black"/>
<rect x="1645" y="846" width="7" height="13" fill="black"/>
<rect x="1663" y="846" width="7" height="13" fill="black"/>
<rect x="1735" y="846" width="7" height="13" fill="black"/>
<rect x="1627" y="876" width="7" height="13" fill="black"/>
<rect x="1645" y="876" width="7" height="13" fill="black"/>
<rect x="1717" y="876" width="7" height="13" fill="black"/>
<rect x="1758" y="407" width="7" height="13" fill="black"/>
<rect x="1776" y="407" width="7" height="13" fill="black"/>
<rect x="1794" y="407" width="7" height="13" fill="black"/>
<rect x="1866" y="407" width="7" height="13" fill="black"/>
<rect x="1902" y="407" width="7" height="13" fill="black"/>
<rect x="1776" y="437" width="7" height="13" fill="black"/>
<rect x="1848" y="437" width="7" height="13" fill="black"/>
<rect x="1866" y="437" width="7" height="13" fill="black"/>
<rect x="1884" y="437" width="7" height="13" fill="black"/>
<rect x="1902" y="437" width="7" height="13" fill="black"/>
<rect x="1776" y="467" width="7" height="13" fill="black"/>
<rect x="1812" y="467" width="7" height="13" fill="black"/>
<rect x="1830" y="467" width="7" height="13" fill="black"/>
<rect x="1848" y="467" width="7" height="13" fill="black"/>
<rect x="1866" y="467" width="7" height="13" fill="black"/>
<rect x="1884" y="467" width="7" height="13" fill="black"/>
<rect x="1902" y="467" width="7" height="13" fill="black"/>
<rect x="1776" y="497" width="7" height="13" fill="black"/>
<rect x="1794" y="497" width="7" height="13" fill="black"/>
<rect x="1812" y="497" width="7" height="13" fill="black"/>
<rect x="1830" y="497" width="7" height="13" fill="black"/>
<rect x="1848" y="497" width="7" height="13" fill="black"/>
<rect x="1902" y="497" width="7" height="13" fill="black"/>
<rect x="1794" y="527" width="7" height="13" fill="black"/>
<rect x="1866" y="527" width="7" height="13" fill="black"/>
<rect x="1758" y="557" width="7" height="13" fill="black"/>
<rect x="1776" y="557" width="7" height="13" fill="black"/>
<rect x="1830" y="557" width="7" height="13" fill="black"/>
<rect x="1848" y="557" width="7" height="13" fill="black"/>
<rect x="1866" y="557" width="7" height="13" fill="black"/>
<rect x="1884" y="557" width="7" height="13" fill="black"/>
<rect x="1758" y="587" width="7" height="13" fill="black"/>
<rect x="1776" y="587" width="7" height="13" fill="black"/>
<rect x="1830" y="587" width="7" height="13" fill="black"/>
<rect x="1812" y="617" width="7" height="13" fill="black"/>
<rect x="1776" y="647" width="7" height="13" fill="black"/>
<rect x="1794" y="647" width="7" height="13" fill="black"/>
<rect x="1812" y="647" width="7" height="13" fill="black"/>
<rect x="1848" y="647" width="7" height="13" fill="black"/>
<rect x="1884" y="647" width="7" height="13" fill="black"/>
<rect x="1812" y="677" width="7" height="13" fill="black"/>
<rect x="1758" y="707" width="7" height="13" fill="black"/>
<rect x="1812" y="707" width="7" height="13" fill="black"/>
<rect x="1866" y="707" width="7" height="13" fill="black"/>
<rect x="1776" y="737" width="7" height="13" fill="black"/>
<rect x="1866" y="737" width="7" height="13" fill="black"/>
<rect x="1758" y="767" width="7" height="13" fill="black"/>
<rect x="1794" y="767" width="7" height="13" fill="black"/>
<rect x="1866" y="767" width="7" height="13" fill="black"/>
<rect x="1794" y="797" width="7" height="13" fill="black"/>
<rect x="1866" y="797" width="7" height="13" fill="black"/>
<rect x="1794" y="827" width="7" height="13" fill="black"/>
<rect x="1812" y="827" width="7" height="13" fill="black"/>
<rect x="1830" y="827" width="7" height="13" fill="black"/>
<rect x="1902" y="827" width="7" height="13" fill="black"/>
<rect x="1812" y="857" width="7" height="13" fill="black"/>
<rect x="1830" y="857" width="7" height="13" fill="black"/>
<rect x="1848" y="857" width="7" height="13" fill="black"/>
<rect x="1866" y="857" width="7" height="13" fill="black"/>
<rect x="1978" y="535" width="7" height="13" fill="black"/>
<rect x="2014" y="535" width="7" height="13" fill="black"/>
<rect x="1942" y="565" width="7" height="13" fill="black"/>
<rect x="1960" y="565" width="7" height="13" fill="black"/>
<rect x="1978" y="565" width="7" height="13" fill="black"/>
<rect x="1942" y="595" width="7" height="13" fill="black"/>
<rect x="2014" y="595" width="7" height="13" fill="black"/>
<rect x="1924" y="625" width="7" height="13" fill="black"/>
<rect x="1942" y="625" width="7" height="13" fill="black"/>
<rect x="1960" y="625" width="7" height="13" fill="black"/>
<rect x="1978" y="625" width="7" height="13" fill="black"/>
<rect x="1924" y="655" width="7" height="13" fill="black"/>
<rect x="1960" y="655" width="7" height="13" fill="black"/>
<rect x="1978" y="655" width="7" height="13" fill="black"/>
<rect x="1960" y="685" width="7" height="13" fill="black"/>
<rect x="1978" y="685" width="7" height="13" fill="black"/>
<rect x="1978" y="715" width="7" height="13" fill="black"/>
<rect x="2014" y="715" width="7" height="13" fill="black"/>
<rect x="1924" y="745" width="7" height="13" fill="black"/>
<rect x="1942" y="745" width="7" height="13" fill="black"/>
<rect x="1960" y="745" width="7" height="13" fill="black"/>
<rect x="1996" y="745" width="7" height="13" fill="black"/>
<rect x="1924" y="775" width="7" height="13" fill="black"/>
<rect x="1960" y="775" width="7" height="13" fill="black"/>
<rect x="1978" y="775" width="7" height="13" fill="black"/>
<rect x="2014" y="775" width="7" height="13" fill="black"/>
<rect x="1942" y="805" width="7" height="13" fill="black"/>
<rect x="1960" y="805" width="7" height="13" fill="black"/>
<rect x="1942" y="835" width="7" height="13" fill="black"/>
<rect x="1924" y="865" width="7" height="13" fill="black"/>
<rect x="1978" y="865" width="7" height="13" fill="black"/>
<rect x="1996" y="865" width="7" height="13" fill="black"/>
<rect x="188" y="630" width="78" height="81" fill="black"/>
<rect x="721" y="645" width="43" height="100" fill="black"/>
<rect x="491" y="562" width="68" height="120" fill="black"/>
<rect x="1675" y="733" width="49" height="74" fill="black"/>
<rect x="1415" y="669" width="50" height="140" fill="black"/>
</mask></defs>
<g mask="url(#m)">
<rect x="-10" y="742" width="81" height="178" fill="#06080f"/>
<rect x="66" y="762" width="46" height="158" fill="#06080f"/>
<rect x="104" y="756" width="108" height="164" fill="#06080f"/>
<rect x="208" y="548" width="47" height="372" fill="#06080f"/>
<rect x="249" y="771" width="67" height="149" fill="#06080f"/>
<rect x="314" y="673" width="95" height="247" fill="#06080f"/>
<rect x="407" y="757" width="70" height="163" fill="#06080f"/>
<rect x="471" y="765" width="94" height="155" fill="#06080f"/>
<rect x="557" y="723" width="55" height="197" fill="#06080f"/>
<rect x="605" y="633" width="47" height="287" fill="#06080f"/>
<rect x="646" y="768" width="90" height="152" fill="#06080f"/>
<rect x="733" y="638" width="45" height="282" fill="#06080f"/>
<rect x="770" y="706" width="57" height="214" fill="#06080f"/>
<rect x="822" y="642" width="58" height="278" fill="#06080f"/>
<rect x="878" y="637" width="79" height="283" fill="#06080f"/>
<rect x="949" y="754" width="63" height="166" fill="#06080f"/>
<rect x="1006" y="685" width="64" height="235" fill="#06080f"/>
<rect x="1068" y="598" width="110" height="322" fill="#06080f"/>
<rect x="1176" y="622" width="47" height="298" fill="#06080f"/>
<rect x="1220" y="606" width="103" height="314" fill="#06080f"/>
<rect x="1317" y="582" width="94" height="338" fill="#06080f"/>
<rect x="1407" y="631" width="99" height="289" fill="#06080f"/>
<rect x="1501" y="704" width="86" height="216" fill="#06080f"/>
<rect x="1584" y="602" width="63" height="318" fill="#06080f"/>
<rect x="1639" y="760" width="71" height="160" fill="#06080f"/>
<rect x="1704" y="646" width="78" height="274" fill="#06080f"/>
<rect x="1777" y="594" width="83" height="326" fill="#06080f"/>
<rect x="1855" y="625" width="76" height="295" fill="#06080f"/>
<rect x="1929" y="649" width="55" height="271" fill="#06080f"/>
<rect x="-25" y="283" width="91" height="637" fill="#08090f"/>
<rect x="61" y="455" width="132" height="465" fill="#0a0c14"/>
<rect x="180" y="279" width="79" height="641" fill="#08090f"/>
<rect x="251" y="491" width="158" height="429" fill="#0c0f18"/>
<rect x="397" y="437" width="172" height="483" fill="#0a0c14"/>
<rect x="565" y="428" width="104" height="492" fill="#0a0c14"/>
<rect x="666" y="311" width="163" height="609" fill="#08090f"/>
<rect x="816" y="322" width="143" height="598" fill="#0c0f18"/>
<rect x="952" y="473" width="161" height="447" fill="#08090f"/>
<rect x="1110" y="489" width="129" height="431" fill="#0b0d16"/>
<rect x="1227" y="418" width="84" height="502" fill="#0a0c14"/>
<rect x="1305" y="523" width="168" height="397" fill="#0b0d16"/>
<rect x="1459" y="467" width="101" height="453" fill="#0c0f18"/>
<rect x="1550" y="585" width="80" height="335" fill="#0c0f18"/>
<rect x="1621" y="528" width="140" height="392" fill="#0b0d16"/>
<rect x="1752" y="389" width="180" height="531" fill="#08090f"/>
<rect x="1918" y="487" width="123" height="433" fill="#0c0f18"/>
<rect x="0" y="920" width="1920" height="160" fill="#040508"/>
</g>
<line x1="878" y1="203" x2="878" y2="322" stroke="#0a0d18" stroke-width="2"/>
<line x1="757" y1="195" x2="757" y2="311" stroke="#0a0d18" stroke-width="2"/>
<line x1="1979" y1="370" x2="1979" y2="487" stroke="#0a0d18" stroke-width="2"/>
<line x1="473" y1="378" x2="473" y2="437" stroke="#0a0d18" stroke-width="2"/>
<line x1="1183" y1="410" x2="1183" y2="489" stroke="#0a0d18" stroke-width="2"/>
<line x1="625" y1="334" x2="625" y2="428" stroke="#0a0d18" stroke-width="2"/>
<line x1="1266" y1="330" x2="1266" y2="418" stroke="#0a0d18" stroke-width="2"/>
<line x1="221" y1="191" x2="221" y2="279" stroke="#0a0d18" stroke-width="2"/>
</svg>